<svg xmlns="http://www.w3.org/2000/svg" viewBox="0 0 500.26 441.3"><title>In hat</title><g id="Слой_2" data-name="Слой 2"><g id="Слой_1-2" data-name="Слой 1"><ellipse cx="330.4" cy="233.65" rx="21.31" ry="17.97" transform="translate(86.28 556.39) rotate(-88.16)"/><ellipse cx="166.01" cy="233.65" rx="21.31" ry="17.97" transform="translate(-72.84 392.08) rotate(-88.16)"/><path d="M444.8,231.7c32.82-14.76,55.46-46,55.46-82.18,0-50.39-43.92-91.22-98.1-91.22h-.31v46.23a2.28,2.28,0,0,0,0,.45,2.84,2.84,0,0,0,2.31,2.36c8.62,1.52,18.18,7.81,25.39,17.6,11.56,15.66,12.76,34.39,2.69,41.82s-27.6.75-39.16-14.92-12.77-34.39-2.69-41.81a14.86,14.86,0,0,1,3.74-2A2.83,2.83,0,0,0,396,105.8l.13-.82a2.28,2.28,0,0,0,0-.45v-43A2.88,2.88,0,0,0,393,58.69a102.4,102.4,0,0,0-34.12,9,2.86,2.86,0,0,0-1.65,2.6v29.6c0,2.56-1.37,4.76-3.3,5.35L251.12,136.62a3.51,3.51,0,0,1-2,0L146.32,105.2c-1.93-.59-3.28-2.79-3.28-5.35V70.24a2.87,2.87,0,0,0-1.66-2.6A103.61,103.61,0,0,0,98.1,58.3C43.93,58.3,0,99.13,0,149.52c0,36.13,22.6,67.36,55.37,82.13A2.87,2.87,0,0,1,57,234.71a168.58,168.58,0,0,0-2,26.15c0,99.65,87.34,180.44,195.1,180.44s195.08-80.79,195.08-180.44a167.93,167.93,0,0,0-2-26.1A2.86,2.86,0,0,1,444.8,231.7ZM97.38,151.84c-11.56,15.67-29.1,22.35-39.17,14.92s-8.87-26.16,2.69-41.82S90,102.59,100.07,110,108.93,136.18,97.38,151.84Zm62.46,122.72c-19-3.79-31.68-25.17-28.29-47.77s21.6-37.83,40.63-34,31.69,25.17,28.29,47.77S178.87,278.35,159.84,274.56Zm90.3,76.92c-42.48,0-76.9-17.36-76.9-38.76,0-15.39,17.76-28.68,43.5-34.93a140.94,140.94,0,0,1,31-3.82H248l24.09,1.6a1.24,1.24,0,0,1,.27,0c3.86.58,7.61,1.32,11.19,2.19C309.27,284,327,297.33,327,312.72,327,334.12,292.6,351.48,250.14,351.48Zm114.72-111c-3.42,22.59-21.6,37.84-40.63,34.05s-31.69-25.17-28.29-47.77,21.6-37.83,40.63-34S368.25,217.91,364.86,240.51Z"/><path d="M271.88,284.12H226.54c-10,0-16.3,6.15-11.28,11.08l11.33,11.13,11.34,11.15c5,4.93,17.55,4.93,22.56,0l22.68-22.28C288.19,290.27,281.91,284.12,271.88,284.12ZM261.74,294c-8.19,0-14.83-1-14.83-2.12s6.64-2.11,14.83-2.11,14.83.93,14.83,2.11S269.93,294,261.74,294Z"/><path d="M421.13,5.5V25.74c0,3-1.91,5.5-4.27,5.5H404.68a2.83,2.83,0,0,0-2.83,2.83V55.52a2.83,2.83,0,0,1-2.77,2.82H399a2.81,2.81,0,0,1-2.88-2.82V34.07a2.83,2.83,0,0,0-2.82-2.83H361.5c-2.36,0-4.27,2.46-4.27,5.5V66.67a2.82,2.82,0,0,1-1.57,2.52,97.15,97.15,0,0,0-30,23.27,2.83,2.83,0,0,1-3.13.82,210.29,210.29,0,0,0-144.74,0,2.84,2.84,0,0,1-3.13-.81,97.35,97.35,0,0,0-30-23.26A2.82,2.82,0,0,1,143,66.66V36.74c0-3-1.92-5.5-4.28-5.5H83.4c-2.35,0-4.26-2.46-4.26-5.5V5.5c0-3,1.91-5.5,4.26-5.5H416.86C419.22,0,421.13,2.46,421.13,5.5Z"/><path d="M404.74,138.76H393.25a2.1,2.1,0,0,1-2.08-2.44L395.48,109a2.13,2.13,0,0,1,1.75-1.76,18.57,18.57,0,0,1,3.19-.24,2.11,2.11,0,0,1,2.06,1.79l4.34,27.55A2.11,2.11,0,0,1,404.74,138.76Z"/></g></g></svg>